<?xml version="1.0" encoding="UTF-8" standalone="no"?>
<!-- Generated by IcoMoon.io -->

<svg
   xmlns:dc="http://purl.org/dc/elements/1.1/"
   xmlns:cc="http://creativecommons.org/ns#"
   xmlns:rdf="http://www.w3.org/1999/02/22-rdf-syntax-ns#"
   xmlns:svg="http://www.w3.org/2000/svg"
   xmlns="http://www.w3.org/2000/svg"
   xmlns:sodipodi="http://sodipodi.sourceforge.net/DTD/sodipodi-0.dtd"
   xmlns:inkscape="http://www.inkscape.org/namespaces/inkscape"
   version="1.1"
   width="17"
   height="17"
   viewBox="0 0 17 17"
   id="svg2"
   inkscape:version="0.48.2 r9819"
   sodipodi:docname="trash-open.svg"
   inkscape:export-filename="C:\Users\kachi\Documents\git\SoraMame.Block\lib\img\trash-open.png"
   inkscape:export-xdpi="317.64706"
   inkscape:export-ydpi="317.64706">
  <metadata
     id="metadata12">
    <rdf:RDF>
      <cc:Work
         rdf:about="">
        <dc:format>image/svg+xml</dc:format>
        <dc:type
           rdf:resource="http://purl.org/dc/dcmitype/StillImage" />
        <dc:title></dc:title>
      </cc:Work>
    </rdf:RDF>
  </metadata>
  <defs
     id="defs10" />
  <sodipodi:namedview
     pagecolor="#ffffff"
     bordercolor="#666666"
     borderopacity="1"
     objecttolerance="10"
     gridtolerance="10"
     guidetolerance="10"
     inkscape:pageopacity="0"
     inkscape:pageshadow="2"
     inkscape:window-width="1024"
     inkscape:window-height="578"
     id="namedview8"
     showgrid="false"
     inkscape:zoom="23.823529"
     inkscape:cx="8.5"
     inkscape:cy="8.5"
     inkscape:window-x="-8"
     inkscape:window-y="-8"
     inkscape:window-maximized="1"
     inkscape:current-layer="svg2" />
  <g
     id="g4" />
  <path
     d="M 7.4247264,1.5898583 C 7.8137264,0.78278724 8.709295,0.30683829 9.6260101,0.49586066 10.538807,0.68407523 11.170926,1.4709419 11.211073,2.3705853 L 14.706539,3.091334 14.504592,4.0707305 3.7312304,1.8493138 3.9331774,0.86991738 z M 9.4240631,1.4752571 C 9.0499337,1.3981131 8.6889583,1.5493311 8.4628866,1.8039221 L 10.160181,2.1538962 C 10.052914,1.8224042 9.789378,1.5505833 9.4240631,1.4752571 z"
     style="fill:#1abc9f;fill-opacity:1"
     id="path6"
     inkscape:connector-curvature="0"
     sodipodi:nodetypes="csccccccsccs" />
  <path
     sodipodi:nodetypes="ccssssccssssc"
     inkscape:connector-curvature="0"
     id="path3772"
     style="fill:#1abc9f;fill-opacity:1"
     d="m 12.855932,4.720339 1,0 0,10.516 c 0,0.827 -0.673,1.5 -1.5,1.5 l -6.9999999,0 c -0.827,0 -1.5,-0.673 -1.5,-1.5 l 0,-10.516 1,0 0,10.516 c 0,0.275 0.224,0.5 0.5,0.5 l 6.9999999,0 c 0.276,0 0.5,-0.225 0.5,-0.5 z" />
  <path
     d="m 9.3559323,6.228814 0,8 -1,0 0,-8 z"
     style="fill:#1abc9f;fill-opacity:1"
     id="path3774"
     inkscape:connector-curvature="0"
     sodipodi:nodetypes="ccccc" />
  <path
     d="m 11.697034,6.2288142 0,7.9999998 -1,0 0,-7.9999998 z"
     style="fill:#1abc9f;fill-opacity:1"
     id="path3774-1"
     inkscape:connector-curvature="0"
     sodipodi:nodetypes="ccccc" />
  <path
     d="m 7.0148306,6.2288136 0,8.0000004 -1,0 0,-8.0000004 z"
     style="fill:#1abc9f;fill-opacity:1"
     id="path3774-7"
     inkscape:connector-curvature="0"
     sodipodi:nodetypes="ccccc" />
  <path
     style="fill:#1abc9f;fill-opacity:1;stroke:none"
     d="M 1.7954059,1.5554392 3.3999433,2.2620574 3.2734996,2.6735875 1.5904015,2.1029389 z"
     id="rect2987"
     inkscape:connector-curvature="0"
     sodipodi:nodetypes="ccccc" />
  <path
     style="fill:#1abc9f;fill-opacity:1;stroke:none"
     d="m 1.3149657,4.6790762 1.7427262,-0.1917161 0.00308,-0.430506 -1.7767899,0.038422 z"
     id="rect2987-9"
     inkscape:connector-curvature="0"
     sodipodi:nodetypes="ccccc" />
  <path
     style="fill:#1abc9f;fill-opacity:1;stroke:none"
     d="M 1.2801241,2.7879832 2.9938385,3.0660825 2.9438269,3.4954158 1.1772506,3.3684385 z"
     id="rect2987-8"
     inkscape:connector-curvature="0"
     sodipodi:nodetypes="ccccc" />
</svg>
