<?xml version="1.0" encoding="UTF-8" standalone="no"?>
<!-- Generated by IcoMoon.io -->

<svg
   xmlns:dc="http://purl.org/dc/elements/1.1/"
   xmlns:cc="http://creativecommons.org/ns#"
   xmlns:rdf="http://www.w3.org/1999/02/22-rdf-syntax-ns#"
   xmlns:svg="http://www.w3.org/2000/svg"
   xmlns="http://www.w3.org/2000/svg"
   xmlns:sodipodi="http://sodipodi.sourceforge.net/DTD/sodipodi-0.dtd"
   xmlns:inkscape="http://www.inkscape.org/namespaces/inkscape"
   version="1.1"
   width="17"
   height="17"
   viewBox="0 0 17 17"
   id="svg2"
   inkscape:version="0.48.2 r9819"
   sodipodi:docname="trash-close.svg"
   inkscape:export-filename="C:\Users\kachi\Documents\git\block-editor\lib\img\trash-close.png"
   inkscape:export-xdpi="317.64706"
   inkscape:export-ydpi="317.64706">
  <metadata
     id="metadata12">
    <rdf:RDF>
      <cc:Work
         rdf:about="">
        <dc:format>image/svg+xml</dc:format>
        <dc:type
           rdf:resource="http://purl.org/dc/dcmitype/StillImage" />
        <dc:title></dc:title>
      </cc:Work>
    </rdf:RDF>
  </metadata>
  <defs
     id="defs10" />
  <sodipodi:namedview
     pagecolor="#ffffff"
     bordercolor="#666666"
     borderopacity="1"
     objecttolerance="10"
     gridtolerance="10"
     guidetolerance="10"
     inkscape:pageopacity="0"
     inkscape:pageshadow="2"
     inkscape:window-width="1024"
     inkscape:window-height="578"
     id="namedview8"
     showgrid="false"
     inkscape:zoom="23.823529"
     inkscape:cx="8.5"
     inkscape:cy="8.5"
     inkscape:window-x="-8"
     inkscape:window-y="-8"
     inkscape:window-maximized="1"
     inkscape:current-layer="svg2" />
  <g
     id="g4" />
  <g
     id="g3776">
    <path
       d="m 12.855932,4.720339 1,0 0,10.516 c 0,0.827 -0.673,1.5 -1.5,1.5 l -6.9999999,0 c -0.827,0 -1.5,-0.673 -1.5,-1.5 l 0,-10.516 1,0 0,10.516 c 0,0.275 0.224,0.5 0.5,0.5 l 6.9999999,0 c 0.276,0 0.5,-0.225 0.5,-0.5 z"
       style="fill:#666666;fill-opacity:1"
       id="path3772"
       inkscape:connector-curvature="0"
       sodipodi:nodetypes="ccssssccssssc" />
    <g
       id="g3771">
      <path
         d="m 9.3559323,6.228814 0,8 -1,0 0,-8 z"
         style="fill:#666666;fill-opacity:1"
         id="path3774"
         inkscape:connector-curvature="0"
         sodipodi:nodetypes="ccccc" />
      <path
         d="m 11.697034,6.2288142 0,7.9999998 -1,0 0,-7.9999998 z"
         style="fill:#666666;fill-opacity:1"
         id="path3774-1"
         inkscape:connector-curvature="0"
         sodipodi:nodetypes="ccccc" />
      <path
         d="m 7.0148306,6.2288136 0,8.0000004 -1,0 0,-8.0000004 z"
         style="fill:#666666;fill-opacity:1"
         id="path3774-7"
         inkscape:connector-curvature="0"
         sodipodi:nodetypes="ccccc" />
    </g>
    <path
       sodipodi:nodetypes="csccccccsccs"
       inkscape:connector-curvature="0"
       id="path6"
       style="fill:#666666;fill-opacity:1;opacity:1"
       d="m 10.790932,4.4651526 c -0.218,-0.869 -0.9989999,-1.516 -1.9349999,-1.516 -0.932,0 -1.71,0.643 -1.931,1.516 l -3.569,0 0,1 10.9999999,0 0,-1 z m -1.9349999,-0.516 c 0.382,0 0.705,0.221 0.875,0.516 l -1.733,0 c 0.172,-0.303 0.485,-0.516 0.858,-0.516 z" />
  </g>
</svg>
